<svg width="49" height="22" viewBox="0 0 49 22" fill="none" xmlns="http://www.w3.org/2000/svg">
<path d="M14.85 6.89999C14.47 6.19999 13.92 5.66999 13.2 5.30999C12.5 4.92999 11.67 4.73999 10.71 4.73999C9.05001 4.73999 7.72001 5.28999 6.72001 6.38999C5.72001 7.46999 5.22001 8.91999 5.22001 10.74C5.22001 12.68 5.74001 14.2 6.78001 15.3C7.84001 16.38 9.29001 16.92 11.13 16.92C12.39 16.92 13.45 16.6 14.31 15.96C15.19 15.32 15.83 14.4 16.23 13.2H9.72001V9.41999H20.88V14.19C20.5 15.47 19.85 16.66 18.93 17.76C18.03 18.86 16.88 19.75 15.48 20.43C14.08 21.11 12.5 21.45 10.74 21.45C8.66001 21.45 6.80001 21 5.16001 20.1C3.54001 19.18 2.27001 17.91 1.35001 16.29C0.45001 14.67 9.76026e-06 12.82 9.76026e-06 10.74C9.76026e-06 8.65999 0.45001 6.80999 1.35001 5.18999C2.27001 3.54999 3.54001 2.27999 5.16001 1.37999C6.78001 0.459987 8.63001 -1.33514e-05 10.71 -1.33514e-05C13.23 -1.33514e-05 15.35 0.609987 17.07 1.82999C18.81 3.04999 19.96 4.73999 20.52 6.89999H14.85ZM36.4716 10.5C37.6916 10.76 38.6716 11.37 39.4116 12.33C40.1516 13.27 40.5216 14.35 40.5216 15.57C40.5216 17.33 39.9016 18.73 38.6616 19.77C37.4416 20.79 35.7316 21.3 33.5316 21.3H23.7216V0.239987H33.2016C35.3416 0.239987 37.0116 0.729987 38.2116 1.70999C39.4316 2.68999 40.0416 4.01999 40.0416 5.69999C40.0416 6.93999 39.7116 7.96999 39.0516 8.78999C38.4116 9.60999 37.5516 10.18 36.4716 10.5ZM28.8516 8.75999H32.2116C33.0516 8.75999 33.6916 8.57999 34.1316 8.21999C34.5916 7.83999 34.8216 7.28999 34.8216 6.56999C34.8216 5.84999 34.5916 5.29999 34.1316 4.91999C33.6916 4.53999 33.0516 4.34999 32.2116 4.34999H28.8516V8.75999ZM32.6316 17.16C33.4916 17.16 34.1516 16.97 34.6116 16.59C35.0916 16.19 35.3316 15.62 35.3316 14.88C35.3316 14.14 35.0816 13.56 34.5816 13.14C34.1016 12.72 33.4316 12.51 32.5716 12.51H28.8516V17.16H32.6316ZM45.897 21.54C44.997 21.54 44.257 21.28 43.677 20.76C43.117 20.22 42.837 19.56 42.837 18.78C42.837 17.98 43.117 17.31 43.677 16.77C44.257 16.23 44.997 15.96 45.897 15.96C46.777 15.96 47.497 16.23 48.057 16.77C48.637 17.31 48.927 17.98 48.927 18.78C48.927 19.56 48.637 20.22 48.057 20.76C47.497 21.28 46.777 21.54 45.897 21.54Z" fill="white" fill-opacity="0.8"/>
</svg>
